<svg xmlns="http://www.w3.org/2000/svg" viewBox="0 0 240 240" width="1024" height="1024">
<defs>
  <linearGradient id="stroke" x1="0" y1="0" x2="0" y2="1">
    <stop offset="0" stop-color="#1F1C16" stop-opacity="1"/>
    <stop offset="1" stop-color="#1F1C16" stop-opacity="0.85"/>
  </linearGradient>
  <linearGradient id="str" x1="0" y1="0" x2="0" y2="1">
    <stop offset="0"   stop-color="#D9A43A"/>
    <stop offset="0.5" stop-color="#B8861E"/>
    <stop offset="1"   stop-color="#8A641A"/>
  </linearGradient>
  <radialGradient id="dot" cx="0.5" cy="0.45" r="0.6">
    <stop offset="0"   stop-color="#D9A43A"/>
    <stop offset="0.6" stop-color="#8A641A"/>
    <stop offset="1"   stop-color="#1F1C16"/>
  </radialGradient>
  <filter id="carve" x="-20%" y="-20%" width="140%" height="140%">
    <feGaussianBlur in="SourceAlpha" stdDeviation="1.2" result="b"/>
    <feOffset in="b" dx="0" dy="2" result="o"/>
    <feComposite in="o" in2="SourceAlpha" operator="out" result="rim"/>
    <feMerge><feMergeNode in="rim"/><feMergeNode in="SourceGraphic"/></feMerge>
  </filter>
</defs>
<!-- warm bone bg so the carve reads on transparent fallbacks too -->
<rect width="240" height="240" fill="#EFE8D4"/>
<g filter="url(#carve)" fill="url(#stroke)">
  <path d="M 26 48 L 214 48 L 214 54 L 26 54 Z"/>
  <path d="M 20 44 L 36 44 L 36 60 L 20 60 Z"/>
  <path d="M 204 44 L 220 44 L 220 60 L 204 60 Z"/>
  <path d="M 44 54 L 76 54 L 72 70 C 70 82 66 100 64 124 C 63 138 64 150 68 162 L 50 162 C 46 150 44 136 45 120 C 46 96 48 74 50 60 L 44 60 Z"/>
  <path d="M 196 54 L 164 54 L 168 70 C 170 82 174 100 176 124 C 177 138 176 150 172 162 L 190 162 C 194 150 196 136 195 120 C 194 96 192 74 190 60 L 196 60 Z"/>
  <path d="M 50 162 C 54 180 72 196 96 202 C 108 204 132 204 144 202 C 168 196 186 180 190 162 L 172 162 C 168 174 156 184 138 188 C 124 190 116 190 102 188 C 84 184 72 174 68 162 Z"/>
</g>
<!-- 5 lyre strings + gold pegs + bottom fix dots -->
    <line x1="84" y1="54" x2="84" y2="162" stroke="rgba(31,28,22,0.55)" stroke-width="2.4" stroke-linecap="round"/>
    <line x1="84" y1="54" x2="84" y2="162" stroke="url(#str)" stroke-width="1.6" stroke-linecap="round"/>
    <circle cx="84" cy="50" r="2.2" fill="#B8861E" stroke="#8A641A" stroke-width="0.6"/>
    <circle cx="84" cy="162" r="1.4" fill="#8A641A"/>
    <line x1="100" y1="54" x2="100" y2="162" stroke="rgba(31,28,22,0.55)" stroke-width="2.4" stroke-linecap="round"/>
    <line x1="100" y1="54" x2="100" y2="162" stroke="url(#str)" stroke-width="1.6" stroke-linecap="round"/>
    <circle cx="100" cy="50" r="2.2" fill="#B8861E" stroke="#8A641A" stroke-width="0.6"/>
    <circle cx="100" cy="162" r="1.4" fill="#8A641A"/>
    <line x1="120" y1="54" x2="120" y2="162" stroke="rgba(31,28,22,0.55)" stroke-width="2.4" stroke-linecap="round"/>
    <line x1="120" y1="54" x2="120" y2="162" stroke="url(#str)" stroke-width="1.6" stroke-linecap="round"/>
    <circle cx="120" cy="50" r="2.2" fill="#B8861E" stroke="#8A641A" stroke-width="0.6"/>
    <circle cx="120" cy="162" r="1.4" fill="#8A641A"/>
    <line x1="140" y1="54" x2="140" y2="162" stroke="rgba(31,28,22,0.55)" stroke-width="2.4" stroke-linecap="round"/>
    <line x1="140" y1="54" x2="140" y2="162" stroke="url(#str)" stroke-width="1.6" stroke-linecap="round"/>
    <circle cx="140" cy="50" r="2.2" fill="#B8861E" stroke="#8A641A" stroke-width="0.6"/>
    <circle cx="140" cy="162" r="1.4" fill="#8A641A"/>
    <line x1="156" y1="54" x2="156" y2="162" stroke="rgba(31,28,22,0.55)" stroke-width="2.4" stroke-linecap="round"/>
    <line x1="156" y1="54" x2="156" y2="162" stroke="url(#str)" stroke-width="1.6" stroke-linecap="round"/>
    <circle cx="156" cy="50" r="2.2" fill="#B8861E" stroke="#8A641A" stroke-width="0.6"/>
    <circle cx="156" cy="162" r="1.4" fill="#8A641A"/>
<!-- citation dot (the token in the cup) -->
<circle cx="120" cy="212" r="7.5" fill="#1F1C16" opacity="0.85"/>
<circle cx="120" cy="210" r="5.2" fill="url(#dot)"/>
<circle cx="118.5" cy="208.5" r="1.2" fill="#EFE8D4" opacity="0.65"/>
<!-- rim highlight -->
<g stroke="rgba(239,232,212,0.6)" stroke-width="0.7" fill="none" stroke-linecap="round">
  <line x1="26" y1="48" x2="214" y2="48"/>
  <path d="M 44 54 L 76 54"/>
  <path d="M 164 54 L 196 54"/>
</g>
<!-- triple-dot bindrune -->
<g fill="#B8861E" opacity="0.9">
  <circle cx="108" cy="226" r="1.2"/>
  <circle cx="120" cy="226" r="1.2"/>
  <circle cx="132" cy="226" r="1.2"/>
</g>
</svg>